<mxfile host="app.diagrams.net" modified="2023-11-30T11:52:14.800Z" agent="Mozilla/5.0 (Windows NT 10.0; Win64; x64) AppleWebKit/537.36 (KHTML, like Gecko) Chrome/119.0.0.0 Safari/537.36 Edg/119.0.0.0" etag="ENgbAPYobqZa6G18INtW" version="22.1.5" type="device">
  <diagram id="y1GI_bcndjoka8Km0WxO" name="Pagina-1">
    <mxGraphModel dx="2874" dy="2294" grid="0" gridSize="10" guides="1" tooltips="1" connect="1" arrows="1" fold="1" page="0" pageScale="1" pageWidth="827" pageHeight="1169" math="0" shadow="0">
      <root>
        <mxCell id="0" />
        <mxCell id="1" parent="0" />
        <mxCell id="BabXA0i_4MHQfyEZQ3z1-105" value="" style="edgeStyle=orthogonalEdgeStyle;shape=connector;rounded=0;orthogonalLoop=1;jettySize=auto;html=1;labelBackgroundColor=default;strokeColor=default;align=center;verticalAlign=middle;fontFamily=Helvetica;fontSize=12;fontColor=default;endArrow=none;endFill=0;startSize=8;endSize=8;" edge="1" parent="1" source="BabXA0i_4MHQfyEZQ3z1-1" target="BabXA0i_4MHQfyEZQ3z1-104">
          <mxGeometry relative="1" as="geometry" />
        </mxCell>
        <mxCell id="BabXA0i_4MHQfyEZQ3z1-1" value="GIOCATORE" style="whiteSpace=wrap;html=1;align=center;fontSize=16;" vertex="1" parent="1">
          <mxGeometry x="73.5" y="-90" width="131" height="44" as="geometry" />
        </mxCell>
        <mxCell id="BabXA0i_4MHQfyEZQ3z1-14" value="SSN" style="ellipse;whiteSpace=wrap;html=1;align=center;fontStyle=4;fontSize=16;" vertex="1" parent="1">
          <mxGeometry x="89" y="-677" width="100" height="40" as="geometry" />
        </mxCell>
        <mxCell id="BabXA0i_4MHQfyEZQ3z1-28" value="" style="edgeStyle=none;curved=1;rounded=0;orthogonalLoop=1;jettySize=auto;html=1;fontSize=12;startSize=8;endSize=8;endArrow=none;endFill=0;" edge="1" parent="1" source="BabXA0i_4MHQfyEZQ3z1-15" target="BabXA0i_4MHQfyEZQ3z1-16">
          <mxGeometry relative="1" as="geometry" />
        </mxCell>
        <mxCell id="BabXA0i_4MHQfyEZQ3z1-15" value="Nome" style="ellipse;whiteSpace=wrap;html=1;align=center;fontSize=16;" vertex="1" parent="1">
          <mxGeometry x="-76" y="-614" width="100" height="40" as="geometry" />
        </mxCell>
        <mxCell id="BabXA0i_4MHQfyEZQ3z1-16" value="Cognome" style="ellipse;whiteSpace=wrap;html=1;align=center;fontSize=16;" vertex="1" parent="1">
          <mxGeometry x="241.5" y="-614" width="100" height="40" as="geometry" />
        </mxCell>
        <mxCell id="BabXA0i_4MHQfyEZQ3z1-30" value="" style="edgeStyle=none;shape=connector;curved=1;rounded=0;orthogonalLoop=1;jettySize=auto;html=1;labelBackgroundColor=default;strokeColor=default;align=center;verticalAlign=middle;fontFamily=Helvetica;fontSize=12;fontColor=default;endArrow=none;endFill=0;startSize=8;endSize=8;" edge="1" parent="1" source="BabXA0i_4MHQfyEZQ3z1-17" target="BabXA0i_4MHQfyEZQ3z1-20">
          <mxGeometry relative="1" as="geometry" />
        </mxCell>
        <mxCell id="BabXA0i_4MHQfyEZQ3z1-17" value="Nazionalità" style="ellipse;whiteSpace=wrap;html=1;align=center;fontSize=16;" vertex="1" parent="1">
          <mxGeometry x="-76" y="-441" width="100" height="40" as="geometry" />
        </mxCell>
        <mxCell id="BabXA0i_4MHQfyEZQ3z1-29" value="" style="edgeStyle=none;shape=connector;curved=1;rounded=0;orthogonalLoop=1;jettySize=auto;html=1;labelBackgroundColor=default;strokeColor=default;align=center;verticalAlign=middle;fontFamily=Helvetica;fontSize=12;fontColor=default;endArrow=none;endFill=0;startSize=8;endSize=8;" edge="1" parent="1" source="BabXA0i_4MHQfyEZQ3z1-18" target="BabXA0i_4MHQfyEZQ3z1-19">
          <mxGeometry relative="1" as="geometry" />
        </mxCell>
        <mxCell id="BabXA0i_4MHQfyEZQ3z1-18" value="Data di Nascita" style="ellipse;whiteSpace=wrap;html=1;align=center;fontSize=16;" vertex="1" parent="1">
          <mxGeometry x="-78" y="-537" width="104" height="44" as="geometry" />
        </mxCell>
        <mxCell id="BabXA0i_4MHQfyEZQ3z1-19" value="Piede" style="ellipse;whiteSpace=wrap;html=1;align=center;fontSize=16;" vertex="1" parent="1">
          <mxGeometry x="246" y="-535" width="100" height="40" as="geometry" />
        </mxCell>
        <mxCell id="BabXA0i_4MHQfyEZQ3z1-20" value="Altezza" style="ellipse;whiteSpace=wrap;html=1;align=center;fontSize=16;" vertex="1" parent="1">
          <mxGeometry x="249" y="-441" width="100" height="40" as="geometry" />
        </mxCell>
        <mxCell id="BabXA0i_4MHQfyEZQ3z1-21" value="Peso" style="ellipse;whiteSpace=wrap;html=1;align=center;fontSize=16;" vertex="1" parent="1">
          <mxGeometry x="246" y="-354" width="100" height="40" as="geometry" />
        </mxCell>
        <mxCell id="BabXA0i_4MHQfyEZQ3z1-22" value="Abilità" style="ellipse;whiteSpace=wrap;html=1;align=center;fontSize=16;" vertex="1" parent="1">
          <mxGeometry x="-76" y="-177" width="100" height="40" as="geometry" />
        </mxCell>
        <mxCell id="BabXA0i_4MHQfyEZQ3z1-31" value="" style="edgeStyle=none;shape=connector;curved=1;rounded=0;orthogonalLoop=1;jettySize=auto;html=1;labelBackgroundColor=default;strokeColor=default;align=center;verticalAlign=middle;fontFamily=Helvetica;fontSize=12;fontColor=default;endArrow=none;endFill=0;startSize=8;endSize=8;" edge="1" parent="1" source="BabXA0i_4MHQfyEZQ3z1-23" target="BabXA0i_4MHQfyEZQ3z1-21">
          <mxGeometry relative="1" as="geometry" />
        </mxCell>
        <mxCell id="BabXA0i_4MHQfyEZQ3z1-23" value="Ruoli" style="ellipse;whiteSpace=wrap;html=1;align=center;fontSize=16;" vertex="1" parent="1">
          <mxGeometry x="-76" y="-354" width="100" height="40" as="geometry" />
        </mxCell>
        <mxCell id="BabXA0i_4MHQfyEZQ3z1-32" value="" style="edgeStyle=none;shape=connector;curved=1;rounded=0;orthogonalLoop=1;jettySize=auto;html=1;labelBackgroundColor=default;strokeColor=default;align=center;verticalAlign=middle;fontFamily=Helvetica;fontSize=12;fontColor=default;endArrow=none;endFill=0;startSize=8;endSize=8;" edge="1" parent="1" source="BabXA0i_4MHQfyEZQ3z1-24" target="BabXA0i_4MHQfyEZQ3z1-25">
          <mxGeometry relative="1" as="geometry" />
        </mxCell>
        <mxCell id="BabXA0i_4MHQfyEZQ3z1-24" value="Ritirato" style="ellipse;whiteSpace=wrap;html=1;align=center;fontSize=16;" vertex="1" parent="1">
          <mxGeometry x="-76" y="-273" width="100" height="40" as="geometry" />
        </mxCell>
        <mxCell id="BabXA0i_4MHQfyEZQ3z1-25" value="TipoGiocatore" style="ellipse;whiteSpace=wrap;html=1;align=center;fontSize=16;" vertex="1" parent="1">
          <mxGeometry x="241.5" y="-273" width="115" height="42" as="geometry" />
        </mxCell>
        <mxCell id="BabXA0i_4MHQfyEZQ3z1-27" value="" style="endArrow=none;html=1;rounded=0;fontSize=12;startSize=8;endSize=8;curved=1;exitX=0.5;exitY=1;exitDx=0;exitDy=0;entryX=0.5;entryY=0;entryDx=0;entryDy=0;" edge="1" parent="1" source="BabXA0i_4MHQfyEZQ3z1-14" target="BabXA0i_4MHQfyEZQ3z1-1">
          <mxGeometry relative="1" as="geometry">
            <mxPoint x="71" y="-206" as="sourcePoint" />
            <mxPoint x="108" y="-95" as="targetPoint" />
            <Array as="points">
              <mxPoint x="139" y="-418" />
              <mxPoint x="139" y="-320" />
            </Array>
          </mxGeometry>
        </mxCell>
        <mxCell id="BabXA0i_4MHQfyEZQ3z1-33" value="" style="edgeStyle=none;shape=connector;curved=1;rounded=0;orthogonalLoop=1;jettySize=auto;html=1;labelBackgroundColor=default;strokeColor=default;align=center;verticalAlign=middle;fontFamily=Helvetica;fontSize=12;fontColor=default;endArrow=none;endFill=0;startSize=8;endSize=8;exitX=1;exitY=0.5;exitDx=0;exitDy=0;" edge="1" parent="1">
          <mxGeometry relative="1" as="geometry">
            <mxPoint x="22.999999999999886" y="-157" as="sourcePoint" />
            <mxPoint x="139" y="-157" as="targetPoint" />
          </mxGeometry>
        </mxCell>
        <mxCell id="BabXA0i_4MHQfyEZQ3z1-100" value="" style="edgeStyle=none;shape=connector;curved=1;rounded=0;orthogonalLoop=1;jettySize=auto;html=1;labelBackgroundColor=default;strokeColor=default;align=center;verticalAlign=middle;fontFamily=Helvetica;fontSize=12;fontColor=default;endArrow=none;endFill=0;startSize=8;endSize=8;" edge="1" parent="1" source="BabXA0i_4MHQfyEZQ3z1-34" target="BabXA0i_4MHQfyEZQ3z1-99">
          <mxGeometry relative="1" as="geometry" />
        </mxCell>
        <mxCell id="BabXA0i_4MHQfyEZQ3z1-113" value="" style="edgeStyle=elbowEdgeStyle;shape=connector;rounded=0;orthogonalLoop=1;jettySize=auto;html=1;labelBackgroundColor=default;strokeColor=default;align=center;verticalAlign=middle;fontFamily=Helvetica;fontSize=12;fontColor=default;endArrow=none;endFill=0;startSize=8;endSize=8;" edge="1" parent="1" source="BabXA0i_4MHQfyEZQ3z1-34" target="BabXA0i_4MHQfyEZQ3z1-112">
          <mxGeometry relative="1" as="geometry">
            <Array as="points">
              <mxPoint x="588" y="360" />
            </Array>
          </mxGeometry>
        </mxCell>
        <mxCell id="BabXA0i_4MHQfyEZQ3z1-34" value="MILITANZA" style="whiteSpace=wrap;html=1;align=center;fontSize=16;flipV=0;flipH=0;" vertex="1" parent="1">
          <mxGeometry x="71.5" y="155" width="131" height="44" as="geometry" />
        </mxCell>
        <mxCell id="BabXA0i_4MHQfyEZQ3z1-35" value="ID_Militanza" style="ellipse;whiteSpace=wrap;html=1;align=center;fontStyle=4;fontSize=16;flipV=0;flipH=0;" vertex="1" parent="1">
          <mxGeometry x="87" y="747" width="100" height="40" as="geometry" />
        </mxCell>
        <mxCell id="BabXA0i_4MHQfyEZQ3z1-36" value="" style="edgeStyle=none;curved=1;rounded=0;orthogonalLoop=1;jettySize=auto;html=1;fontSize=12;startSize=8;endSize=8;endArrow=none;endFill=0;" edge="1" parent="1" source="BabXA0i_4MHQfyEZQ3z1-37" target="BabXA0i_4MHQfyEZQ3z1-38">
          <mxGeometry relative="1" as="geometry" />
        </mxCell>
        <mxCell id="BabXA0i_4MHQfyEZQ3z1-37" value="Data_Inizio" style="ellipse;whiteSpace=wrap;html=1;align=center;fontSize=16;flipV=0;flipH=0;" vertex="1" parent="1">
          <mxGeometry x="-78" y="247" width="100" height="40" as="geometry" />
        </mxCell>
        <mxCell id="BabXA0i_4MHQfyEZQ3z1-38" value="Data_Fine" style="ellipse;whiteSpace=wrap;html=1;align=center;fontSize=16;flipV=0;flipH=0;" vertex="1" parent="1">
          <mxGeometry x="239.5" y="247" width="100" height="40" as="geometry" />
        </mxCell>
        <mxCell id="BabXA0i_4MHQfyEZQ3z1-39" value="" style="edgeStyle=none;shape=connector;curved=1;rounded=0;orthogonalLoop=1;jettySize=auto;html=1;labelBackgroundColor=default;strokeColor=default;align=center;verticalAlign=middle;fontFamily=Helvetica;fontSize=12;fontColor=default;endArrow=none;endFill=0;startSize=8;endSize=8;" edge="1" parent="1" source="BabXA0i_4MHQfyEZQ3z1-40" target="BabXA0i_4MHQfyEZQ3z1-44">
          <mxGeometry relative="1" as="geometry" />
        </mxCell>
        <mxCell id="BabXA0i_4MHQfyEZQ3z1-40" value="Assist" style="ellipse;whiteSpace=wrap;html=1;align=center;fontSize=16;flipV=0;flipH=0;" vertex="1" parent="1">
          <mxGeometry x="-78" y="420" width="100" height="40" as="geometry" />
        </mxCell>
        <mxCell id="BabXA0i_4MHQfyEZQ3z1-41" value="" style="edgeStyle=none;shape=connector;curved=1;rounded=0;orthogonalLoop=1;jettySize=auto;html=1;labelBackgroundColor=default;strokeColor=default;align=center;verticalAlign=middle;fontFamily=Helvetica;fontSize=12;fontColor=default;endArrow=none;endFill=0;startSize=8;endSize=8;" edge="1" parent="1" source="BabXA0i_4MHQfyEZQ3z1-42" target="BabXA0i_4MHQfyEZQ3z1-43">
          <mxGeometry relative="1" as="geometry" />
        </mxCell>
        <mxCell id="BabXA0i_4MHQfyEZQ3z1-42" value="Partite Giocate" style="ellipse;whiteSpace=wrap;html=1;align=center;fontSize=16;flipV=0;flipH=0;" vertex="1" parent="1">
          <mxGeometry x="-80" y="324" width="104" height="44" as="geometry" />
        </mxCell>
        <mxCell id="BabXA0i_4MHQfyEZQ3z1-43" value="Goal Segnati" style="ellipse;whiteSpace=wrap;html=1;align=center;fontSize=16;flipV=0;flipH=0;" vertex="1" parent="1">
          <mxGeometry x="244" y="326" width="100" height="40" as="geometry" />
        </mxCell>
        <mxCell id="BabXA0i_4MHQfyEZQ3z1-44" value="Goal Subiti" style="ellipse;whiteSpace=wrap;html=1;align=center;fontSize=16;flipV=0;flipH=0;" vertex="1" parent="1">
          <mxGeometry x="247" y="420" width="100" height="40" as="geometry" />
        </mxCell>
        <mxCell id="BabXA0i_4MHQfyEZQ3z1-45" value="Cartellini Rossi" style="ellipse;whiteSpace=wrap;html=1;align=center;fontSize=16;flipV=0;flipH=0;" vertex="1" parent="1">
          <mxGeometry x="244" y="507" width="100" height="40" as="geometry" />
        </mxCell>
        <mxCell id="BabXA0i_4MHQfyEZQ3z1-47" value="" style="edgeStyle=none;shape=connector;curved=1;rounded=0;orthogonalLoop=1;jettySize=auto;html=1;labelBackgroundColor=default;strokeColor=default;align=center;verticalAlign=middle;fontFamily=Helvetica;fontSize=12;fontColor=default;endArrow=none;endFill=0;startSize=8;endSize=8;" edge="1" parent="1" source="BabXA0i_4MHQfyEZQ3z1-48" target="BabXA0i_4MHQfyEZQ3z1-45">
          <mxGeometry relative="1" as="geometry" />
        </mxCell>
        <mxCell id="BabXA0i_4MHQfyEZQ3z1-48" value="Cartellini Gialli" style="ellipse;whiteSpace=wrap;html=1;align=center;fontSize=16;flipV=0;flipH=0;" vertex="1" parent="1">
          <mxGeometry x="-78" y="507" width="100" height="40" as="geometry" />
        </mxCell>
        <mxCell id="BabXA0i_4MHQfyEZQ3z1-49" value="" style="edgeStyle=none;shape=connector;curved=1;rounded=0;orthogonalLoop=1;jettySize=auto;html=1;labelBackgroundColor=default;strokeColor=default;align=center;verticalAlign=middle;fontFamily=Helvetica;fontSize=12;fontColor=default;endArrow=none;endFill=0;startSize=8;endSize=8;exitX=1;exitY=0.5;exitDx=0;exitDy=0;" edge="1" parent="1" source="BabXA0i_4MHQfyEZQ3z1-50">
          <mxGeometry relative="1" as="geometry">
            <mxPoint x="20.99468843415741" y="602.2915142182746" as="sourcePoint" />
            <mxPoint x="137" y="608" as="targetPoint" />
          </mxGeometry>
        </mxCell>
        <mxCell id="BabXA0i_4MHQfyEZQ3z1-50" value="TipoMilitanza" style="ellipse;whiteSpace=wrap;html=1;align=center;fontSize=16;flipV=0;flipH=0;" vertex="1" parent="1">
          <mxGeometry x="-78" y="588" width="100" height="40" as="geometry" />
        </mxCell>
        <mxCell id="BabXA0i_4MHQfyEZQ3z1-54" value="" style="endArrow=none;html=1;rounded=0;labelBackgroundColor=default;strokeColor=default;align=center;verticalAlign=middle;fontFamily=Helvetica;fontSize=12;fontColor=default;startSize=8;endSize=8;shape=connector;curved=1;entryX=0.5;entryY=1;entryDx=0;entryDy=0;exitX=0.5;exitY=0;exitDx=0;exitDy=0;" edge="1" parent="1" source="BabXA0i_4MHQfyEZQ3z1-35" target="BabXA0i_4MHQfyEZQ3z1-34">
          <mxGeometry relative="1" as="geometry">
            <mxPoint x="-64" y="413" as="sourcePoint" />
            <mxPoint x="96" y="413" as="targetPoint" />
          </mxGeometry>
        </mxCell>
        <mxCell id="BabXA0i_4MHQfyEZQ3z1-118" value="" style="edgeStyle=none;shape=connector;curved=1;rounded=0;orthogonalLoop=1;jettySize=auto;html=1;labelBackgroundColor=default;strokeColor=default;align=center;verticalAlign=middle;fontFamily=Helvetica;fontSize=12;fontColor=default;endArrow=none;endFill=0;startSize=8;endSize=8;" edge="1" parent="1" source="BabXA0i_4MHQfyEZQ3z1-55" target="BabXA0i_4MHQfyEZQ3z1-117">
          <mxGeometry relative="1" as="geometry" />
        </mxCell>
        <mxCell id="BabXA0i_4MHQfyEZQ3z1-55" value="SQUADRA" style="whiteSpace=wrap;html=1;align=center;fontSize=16;flipV=0;flipH=0;" vertex="1" parent="1">
          <mxGeometry x="826.25" y="-244" width="131" height="44" as="geometry" />
        </mxCell>
        <mxCell id="BabXA0i_4MHQfyEZQ3z1-56" value="NomeSquadra" style="ellipse;whiteSpace=wrap;html=1;align=center;fontStyle=4;fontSize=16;flipV=0;flipH=0;" vertex="1" parent="1">
          <mxGeometry x="1224.75" y="-249" width="131" height="54" as="geometry" />
        </mxCell>
        <mxCell id="BabXA0i_4MHQfyEZQ3z1-57" value="" style="edgeStyle=none;curved=1;rounded=0;orthogonalLoop=1;jettySize=auto;html=1;fontSize=12;startSize=8;endSize=8;endArrow=none;endFill=0;" edge="1" parent="1" source="BabXA0i_4MHQfyEZQ3z1-58" target="BabXA0i_4MHQfyEZQ3z1-59">
          <mxGeometry relative="1" as="geometry" />
        </mxCell>
        <mxCell id="BabXA0i_4MHQfyEZQ3z1-58" value="Nazionalità" style="ellipse;whiteSpace=wrap;html=1;align=center;fontSize=16;flipV=1;flipH=0;" vertex="1" parent="1">
          <mxGeometry x="1025.25" y="-165" width="109" height="44" as="geometry" />
        </mxCell>
        <mxCell id="BabXA0i_4MHQfyEZQ3z1-59" value="Data_Fondazione" style="ellipse;whiteSpace=wrap;html=1;align=center;fontSize=16;flipV=1;flipH=0;" vertex="1" parent="1">
          <mxGeometry x="1003.75" y="-328" width="152" height="47.5" as="geometry" />
        </mxCell>
        <mxCell id="BabXA0i_4MHQfyEZQ3z1-71" value="" style="endArrow=none;html=1;rounded=0;labelBackgroundColor=default;strokeColor=default;align=center;verticalAlign=middle;fontFamily=Helvetica;fontSize=12;fontColor=default;startSize=8;endSize=8;shape=connector;curved=1;entryX=1;entryY=0.5;entryDx=0;entryDy=0;exitX=0;exitY=0.5;exitDx=0;exitDy=0;" edge="1" parent="1" source="BabXA0i_4MHQfyEZQ3z1-56" target="BabXA0i_4MHQfyEZQ3z1-55">
          <mxGeometry relative="1" as="geometry">
            <mxPoint x="1231.75" y="-138" as="sourcePoint" />
            <mxPoint x="1439.75" y="-352.0000000000002" as="targetPoint" />
          </mxGeometry>
        </mxCell>
        <mxCell id="BabXA0i_4MHQfyEZQ3z1-72" value="TROFEO" style="whiteSpace=wrap;html=1;align=center;fontSize=16;" vertex="1" parent="1">
          <mxGeometry x="826.25" y="-536" width="131" height="44" as="geometry" />
        </mxCell>
        <mxCell id="BabXA0i_4MHQfyEZQ3z1-73" value="NomeTrofeo" style="ellipse;whiteSpace=wrap;html=1;align=center;fontStyle=4;fontSize=16;" vertex="1" parent="1">
          <mxGeometry x="766" y="-721" width="100" height="40" as="geometry" />
        </mxCell>
        <mxCell id="BabXA0i_4MHQfyEZQ3z1-84" value="Squadra" style="ellipse;whiteSpace=wrap;html=1;align=center;fontSize=16;" vertex="1" parent="1">
          <mxGeometry x="694" y="-625" width="100" height="40" as="geometry" />
        </mxCell>
        <mxCell id="BabXA0i_4MHQfyEZQ3z1-90" value="" style="endArrow=none;html=1;rounded=0;fontSize=12;startSize=8;endSize=8;exitX=0.5;exitY=1;exitDx=0;exitDy=0;" edge="1" parent="1" source="BabXA0i_4MHQfyEZQ3z1-73">
          <mxGeometry relative="1" as="geometry">
            <mxPoint x="816" y="-682" as="sourcePoint" />
            <mxPoint x="891.7950819672133" y="-537" as="targetPoint" />
            <Array as="points">
              <mxPoint x="892" y="-637" />
            </Array>
          </mxGeometry>
        </mxCell>
        <mxCell id="BabXA0i_4MHQfyEZQ3z1-91" value="" style="edgeStyle=none;shape=connector;curved=1;rounded=0;orthogonalLoop=1;jettySize=auto;html=1;labelBackgroundColor=default;strokeColor=default;align=center;verticalAlign=middle;fontFamily=Helvetica;fontSize=12;fontColor=default;endArrow=none;endFill=0;startSize=8;endSize=8;exitX=1;exitY=0.5;exitDx=0;exitDy=0;" edge="1" parent="1" source="BabXA0i_4MHQfyEZQ3z1-84">
          <mxGeometry relative="1" as="geometry">
            <mxPoint x="775.7499999999999" y="-603" as="sourcePoint" />
            <mxPoint x="892" y="-605" as="targetPoint" />
          </mxGeometry>
        </mxCell>
        <mxCell id="BabXA0i_4MHQfyEZQ3z1-92" value="Anno" style="ellipse;whiteSpace=wrap;html=1;align=center;fontStyle=4;fontSize=16;" vertex="1" parent="1">
          <mxGeometry x="907" y="-721" width="100" height="40" as="geometry" />
        </mxCell>
        <mxCell id="BabXA0i_4MHQfyEZQ3z1-93" value="" style="endArrow=none;html=1;rounded=0;fontSize=12;startSize=8;endSize=8;exitX=0.5;exitY=1;exitDx=0;exitDy=0;entryX=0.5;entryY=0;entryDx=0;entryDy=0;" edge="1" parent="1" source="BabXA0i_4MHQfyEZQ3z1-92" target="BabXA0i_4MHQfyEZQ3z1-72">
          <mxGeometry relative="1" as="geometry">
            <mxPoint x="964.75" y="-652" as="sourcePoint" />
            <mxPoint x="1033" y="-536" as="targetPoint" />
            <Array as="points">
              <mxPoint x="892" y="-637" />
            </Array>
          </mxGeometry>
        </mxCell>
        <mxCell id="BabXA0i_4MHQfyEZQ3z1-101" value="" style="edgeStyle=none;shape=connector;curved=1;rounded=0;orthogonalLoop=1;jettySize=auto;html=1;labelBackgroundColor=default;strokeColor=default;align=center;verticalAlign=middle;fontFamily=Helvetica;fontSize=12;fontColor=default;endArrow=none;endFill=0;startSize=8;endSize=8;" edge="1" parent="1" source="BabXA0i_4MHQfyEZQ3z1-99" target="BabXA0i_4MHQfyEZQ3z1-1">
          <mxGeometry relative="1" as="geometry" />
        </mxCell>
        <mxCell id="BabXA0i_4MHQfyEZQ3z1-99" value="Ha" style="rhombus;whiteSpace=wrap;html=1;fontSize=16;" vertex="1" parent="1">
          <mxGeometry x="112" y="36" width="50" height="48" as="geometry" />
        </mxCell>
        <mxCell id="BabXA0i_4MHQfyEZQ3z1-102" value="1" style="text;html=1;align=center;verticalAlign=middle;resizable=0;points=[];autosize=1;strokeColor=none;fillColor=none;fontSize=16;fontFamily=Helvetica;fontColor=default;" vertex="1" parent="1">
          <mxGeometry x="135" y="-50" width="27" height="31" as="geometry" />
        </mxCell>
        <mxCell id="BabXA0i_4MHQfyEZQ3z1-103" value="(1, N)" style="text;html=1;align=center;verticalAlign=middle;resizable=0;points=[];autosize=1;strokeColor=none;fillColor=none;fontSize=16;fontFamily=Helvetica;fontColor=default;" vertex="1" parent="1">
          <mxGeometry x="129" y="127" width="58" height="31" as="geometry" />
        </mxCell>
        <mxCell id="BabXA0i_4MHQfyEZQ3z1-106" value="" style="edgeStyle=elbowEdgeStyle;shape=connector;rounded=0;orthogonalLoop=1;jettySize=auto;html=1;labelBackgroundColor=default;strokeColor=default;align=center;verticalAlign=middle;fontFamily=Helvetica;fontSize=12;fontColor=default;endArrow=none;endFill=0;startSize=8;endSize=8;" edge="1" parent="1" source="BabXA0i_4MHQfyEZQ3z1-104" target="BabXA0i_4MHQfyEZQ3z1-72">
          <mxGeometry relative="1" as="geometry">
            <Array as="points">
              <mxPoint x="492" y="-413" />
            </Array>
          </mxGeometry>
        </mxCell>
        <mxCell id="BabXA0i_4MHQfyEZQ3z1-110" value="" style="edgeStyle=elbowEdgeStyle;shape=connector;rounded=0;orthogonalLoop=1;jettySize=auto;html=1;labelBackgroundColor=default;strokeColor=default;align=center;verticalAlign=middle;fontFamily=Helvetica;fontSize=12;fontColor=default;endArrow=none;endFill=0;startSize=8;endSize=8;entryX=0;entryY=0.5;entryDx=0;entryDy=0;" edge="1" parent="1" target="BabXA0i_4MHQfyEZQ3z1-109">
          <mxGeometry relative="1" as="geometry">
            <mxPoint x="492" y="-68" as="sourcePoint" />
            <mxPoint x="647.6746987951808" y="-204.3253012048192" as="targetPoint" />
          </mxGeometry>
        </mxCell>
        <mxCell id="BabXA0i_4MHQfyEZQ3z1-104" value="Vincere" style="rhombus;whiteSpace=wrap;html=1;fontSize=16;" vertex="1" parent="1">
          <mxGeometry x="452" y="-336" width="80" height="80" as="geometry" />
        </mxCell>
        <mxCell id="BabXA0i_4MHQfyEZQ3z1-107" value="(0, N)" style="text;html=1;align=center;verticalAlign=middle;resizable=0;points=[];autosize=1;strokeColor=none;fillColor=none;fontSize=16;fontFamily=Helvetica;fontColor=default;" vertex="1" parent="1">
          <mxGeometry x="202.5" y="-97" width="58" height="31" as="geometry" />
        </mxCell>
        <mxCell id="BabXA0i_4MHQfyEZQ3z1-108" value="(0, N)" style="text;html=1;align=center;verticalAlign=middle;resizable=0;points=[];autosize=1;strokeColor=none;fillColor=none;fontSize=16;fontFamily=Helvetica;fontColor=default;" vertex="1" parent="1">
          <mxGeometry x="774" y="-542" width="58" height="31" as="geometry" />
        </mxCell>
        <mxCell id="BabXA0i_4MHQfyEZQ3z1-111" value="" style="edgeStyle=none;shape=connector;curved=1;rounded=0;orthogonalLoop=1;jettySize=auto;html=1;labelBackgroundColor=default;strokeColor=default;align=center;verticalAlign=middle;fontFamily=Helvetica;fontSize=12;fontColor=default;endArrow=none;endFill=0;startSize=8;endSize=8;" edge="1" parent="1" source="BabXA0i_4MHQfyEZQ3z1-109" target="BabXA0i_4MHQfyEZQ3z1-55">
          <mxGeometry relative="1" as="geometry" />
        </mxCell>
        <mxCell id="BabXA0i_4MHQfyEZQ3z1-109" value="Partecipa" style="rhombus;whiteSpace=wrap;html=1;fontSize=16;" vertex="1" parent="1">
          <mxGeometry x="634" y="-262" width="80" height="80" as="geometry" />
        </mxCell>
        <mxCell id="BabXA0i_4MHQfyEZQ3z1-114" value="" style="shape=connector;rounded=0;orthogonalLoop=1;jettySize=auto;html=1;labelBackgroundColor=default;strokeColor=default;align=center;verticalAlign=middle;fontFamily=Helvetica;fontSize=12;fontColor=default;endArrow=none;endFill=0;startSize=8;endSize=8;edgeStyle=elbowEdgeStyle;exitX=0.5;exitY=0;exitDx=0;exitDy=0;elbow=vertical;" edge="1" parent="1" source="BabXA0i_4MHQfyEZQ3z1-112" target="BabXA0i_4MHQfyEZQ3z1-55">
          <mxGeometry relative="1" as="geometry">
            <Array as="points">
              <mxPoint x="1182" y="12" />
            </Array>
          </mxGeometry>
        </mxCell>
        <mxCell id="BabXA0i_4MHQfyEZQ3z1-112" value="Riferisce" style="rhombus;whiteSpace=wrap;html=1;fontSize=16;" vertex="1" parent="1">
          <mxGeometry x="1565" y="745" width="74" height="68" as="geometry" />
        </mxCell>
        <mxCell id="BabXA0i_4MHQfyEZQ3z1-115" value="(1, N)" style="text;html=1;align=center;verticalAlign=middle;resizable=0;points=[];autosize=1;strokeColor=none;fillColor=none;fontSize=16;fontFamily=Helvetica;fontColor=default;" vertex="1" parent="1">
          <mxGeometry x="196" y="149" width="58" height="31" as="geometry" />
        </mxCell>
        <mxCell id="BabXA0i_4MHQfyEZQ3z1-116" value="(0, N)" style="text;html=1;align=center;verticalAlign=middle;resizable=0;points=[];autosize=1;strokeColor=none;fillColor=none;fontSize=16;fontFamily=Helvetica;fontColor=default;" vertex="1" parent="1">
          <mxGeometry x="835" y="-200" width="58" height="31" as="geometry" />
        </mxCell>
        <mxCell id="BabXA0i_4MHQfyEZQ3z1-119" value="" style="edgeStyle=none;shape=connector;curved=1;rounded=0;orthogonalLoop=1;jettySize=auto;html=1;labelBackgroundColor=default;strokeColor=default;align=center;verticalAlign=middle;fontFamily=Helvetica;fontSize=12;fontColor=default;endArrow=none;endFill=0;startSize=8;endSize=8;" edge="1" parent="1" source="BabXA0i_4MHQfyEZQ3z1-117" target="BabXA0i_4MHQfyEZQ3z1-72">
          <mxGeometry relative="1" as="geometry" />
        </mxCell>
        <mxCell id="BabXA0i_4MHQfyEZQ3z1-117" value="Ottenere" style="rhombus;whiteSpace=wrap;html=1;fontSize=16;" vertex="1" parent="1">
          <mxGeometry x="851.75" y="-401" width="80" height="80" as="geometry" />
        </mxCell>
        <mxCell id="BabXA0i_4MHQfyEZQ3z1-120" value="(0, 1)" style="text;html=1;align=center;verticalAlign=middle;resizable=0;points=[];autosize=1;strokeColor=none;fillColor=none;fontSize=16;fontFamily=Helvetica;fontColor=default;" vertex="1" parent="1">
          <mxGeometry x="835" y="-493" width="55" height="31" as="geometry" />
        </mxCell>
        <mxCell id="BabXA0i_4MHQfyEZQ3z1-121" value="(0, N)" style="text;html=1;align=center;verticalAlign=middle;resizable=0;points=[];autosize=1;strokeColor=none;fillColor=none;fontSize=16;fontFamily=Helvetica;fontColor=default;" vertex="1" parent="1">
          <mxGeometry x="835" y="-273" width="58" height="31" as="geometry" />
        </mxCell>
        <mxCell id="BabXA0i_4MHQfyEZQ3z1-122" value="Allenatore" style="whiteSpace=wrap;html=1;align=center;fontSize=16;flipV=0;flipH=0;" vertex="1" parent="1">
          <mxGeometry x="932.5" y="63" width="131" height="44" as="geometry" />
        </mxCell>
        <mxCell id="BabXA0i_4MHQfyEZQ3z1-123" value="SSN" style="ellipse;whiteSpace=wrap;html=1;align=center;fontStyle=4;fontSize=16;flipV=0;flipH=0;" vertex="1" parent="1">
          <mxGeometry x="948" y="318" width="100" height="40" as="geometry" />
        </mxCell>
        <mxCell id="BabXA0i_4MHQfyEZQ3z1-124" value="" style="edgeStyle=none;curved=1;rounded=0;orthogonalLoop=1;jettySize=auto;html=1;fontSize=12;startSize=8;endSize=8;endArrow=none;endFill=0;" edge="1" parent="1" source="BabXA0i_4MHQfyEZQ3z1-125" target="BabXA0i_4MHQfyEZQ3z1-126">
          <mxGeometry relative="1" as="geometry" />
        </mxCell>
        <mxCell id="BabXA0i_4MHQfyEZQ3z1-125" value="Nome" style="ellipse;whiteSpace=wrap;html=1;align=center;fontSize=16;flipV=0;flipH=0;" vertex="1" parent="1">
          <mxGeometry x="783" y="155" width="100" height="40" as="geometry" />
        </mxCell>
        <mxCell id="BabXA0i_4MHQfyEZQ3z1-126" value="Cognome" style="ellipse;whiteSpace=wrap;html=1;align=center;fontSize=16;flipV=0;flipH=0;" vertex="1" parent="1">
          <mxGeometry x="1100.5" y="155" width="100" height="40" as="geometry" />
        </mxCell>
        <mxCell id="BabXA0i_4MHQfyEZQ3z1-129" value="" style="edgeStyle=none;shape=connector;curved=1;rounded=0;orthogonalLoop=1;jettySize=auto;html=1;labelBackgroundColor=default;strokeColor=default;align=center;verticalAlign=middle;fontFamily=Helvetica;fontSize=12;fontColor=default;endArrow=none;endFill=0;startSize=8;endSize=8;" edge="1" parent="1" source="BabXA0i_4MHQfyEZQ3z1-130" target="BabXA0i_4MHQfyEZQ3z1-131">
          <mxGeometry relative="1" as="geometry" />
        </mxCell>
        <mxCell id="BabXA0i_4MHQfyEZQ3z1-130" value="InizioA" style="ellipse;whiteSpace=wrap;html=1;align=center;fontSize=16;flipV=0;flipH=0;" vertex="1" parent="1">
          <mxGeometry x="781" y="232" width="104" height="44" as="geometry" />
        </mxCell>
        <mxCell id="BabXA0i_4MHQfyEZQ3z1-131" value="FineA" style="ellipse;whiteSpace=wrap;html=1;align=center;fontSize=16;flipV=0;flipH=0;" vertex="1" parent="1">
          <mxGeometry x="1105" y="234" width="100" height="40" as="geometry" />
        </mxCell>
        <mxCell id="BabXA0i_4MHQfyEZQ3z1-138" value="" style="endArrow=none;html=1;rounded=0;labelBackgroundColor=default;strokeColor=default;align=center;verticalAlign=middle;fontFamily=Helvetica;fontSize=12;fontColor=default;startSize=8;endSize=8;shape=connector;curved=1;entryX=0.5;entryY=1;entryDx=0;entryDy=0;exitX=0.5;exitY=0;exitDx=0;exitDy=0;" edge="1" parent="1" source="BabXA0i_4MHQfyEZQ3z1-123" target="BabXA0i_4MHQfyEZQ3z1-122">
          <mxGeometry relative="1" as="geometry">
            <mxPoint x="797" y="321" as="sourcePoint" />
            <mxPoint x="957" y="321" as="targetPoint" />
          </mxGeometry>
        </mxCell>
        <mxCell id="BabXA0i_4MHQfyEZQ3z1-139" value="Dirigente" style="whiteSpace=wrap;html=1;align=center;fontSize=16;flipV=0;flipH=0;" vertex="1" parent="1">
          <mxGeometry x="1249.5" y="346" width="131" height="44" as="geometry" />
        </mxCell>
        <mxCell id="BabXA0i_4MHQfyEZQ3z1-140" value="SSN" style="ellipse;whiteSpace=wrap;html=1;align=center;fontStyle=4;fontSize=16;flipV=0;flipH=0;" vertex="1" parent="1">
          <mxGeometry x="1265" y="680" width="100" height="40" as="geometry" />
        </mxCell>
        <mxCell id="BabXA0i_4MHQfyEZQ3z1-141" value="" style="edgeStyle=none;curved=1;rounded=0;orthogonalLoop=1;jettySize=auto;html=1;fontSize=12;startSize=8;endSize=8;endArrow=none;endFill=0;" edge="1" parent="1" source="BabXA0i_4MHQfyEZQ3z1-142" target="BabXA0i_4MHQfyEZQ3z1-143">
          <mxGeometry relative="1" as="geometry" />
        </mxCell>
        <mxCell id="BabXA0i_4MHQfyEZQ3z1-142" value="Nome" style="ellipse;whiteSpace=wrap;html=1;align=center;fontSize=16;flipV=0;flipH=0;" vertex="1" parent="1">
          <mxGeometry x="1100" y="438" width="100" height="40" as="geometry" />
        </mxCell>
        <mxCell id="BabXA0i_4MHQfyEZQ3z1-143" value="Cognome" style="ellipse;whiteSpace=wrap;html=1;align=center;fontSize=16;flipV=0;flipH=0;" vertex="1" parent="1">
          <mxGeometry x="1417.5" y="438" width="100" height="40" as="geometry" />
        </mxCell>
        <mxCell id="BabXA0i_4MHQfyEZQ3z1-144" value="" style="edgeStyle=none;shape=connector;curved=1;rounded=0;orthogonalLoop=1;jettySize=auto;html=1;labelBackgroundColor=default;strokeColor=default;align=center;verticalAlign=middle;fontFamily=Helvetica;fontSize=12;fontColor=default;endArrow=none;endFill=0;startSize=8;endSize=8;" edge="1" parent="1" source="BabXA0i_4MHQfyEZQ3z1-145" target="BabXA0i_4MHQfyEZQ3z1-146">
          <mxGeometry relative="1" as="geometry" />
        </mxCell>
        <mxCell id="BabXA0i_4MHQfyEZQ3z1-145" value="InizioD" style="ellipse;whiteSpace=wrap;html=1;align=center;fontSize=16;flipV=0;flipH=0;" vertex="1" parent="1">
          <mxGeometry x="1098" y="515" width="104" height="44" as="geometry" />
        </mxCell>
        <mxCell id="BabXA0i_4MHQfyEZQ3z1-146" value="FineD" style="ellipse;whiteSpace=wrap;html=1;align=center;fontSize=16;flipV=0;flipH=0;" vertex="1" parent="1">
          <mxGeometry x="1422" y="517" width="100" height="40" as="geometry" />
        </mxCell>
        <mxCell id="BabXA0i_4MHQfyEZQ3z1-147" value="" style="endArrow=none;html=1;rounded=0;labelBackgroundColor=default;strokeColor=default;align=center;verticalAlign=middle;fontFamily=Helvetica;fontSize=12;fontColor=default;startSize=8;endSize=8;shape=connector;curved=1;entryX=0.5;entryY=1;entryDx=0;entryDy=0;exitX=0.5;exitY=0;exitDx=0;exitDy=0;" edge="1" parent="1" source="BabXA0i_4MHQfyEZQ3z1-140" target="BabXA0i_4MHQfyEZQ3z1-139">
          <mxGeometry relative="1" as="geometry">
            <mxPoint x="1114" y="604" as="sourcePoint" />
            <mxPoint x="1274" y="604" as="targetPoint" />
          </mxGeometry>
        </mxCell>
        <mxCell id="BabXA0i_4MHQfyEZQ3z1-150" value="" style="edgeStyle=none;shape=connector;curved=1;rounded=0;orthogonalLoop=1;jettySize=auto;html=1;labelBackgroundColor=default;strokeColor=default;align=center;verticalAlign=middle;fontFamily=Helvetica;fontSize=12;fontColor=default;endArrow=none;endFill=0;startSize=8;endSize=8;" edge="1" parent="1">
          <mxGeometry relative="1" as="geometry">
            <mxPoint x="1201.000000000002" y="616" as="sourcePoint" />
            <mxPoint x="1315" y="616" as="targetPoint" />
          </mxGeometry>
        </mxCell>
        <mxCell id="BabXA0i_4MHQfyEZQ3z1-148" value="RuoloDirigente" style="ellipse;whiteSpace=wrap;html=1;align=center;fontFamily=Helvetica;fontSize=12;fontColor=default;" vertex="1" parent="1">
          <mxGeometry x="1102" y="596" width="100" height="40" as="geometry" />
        </mxCell>
      </root>
    </mxGraphModel>
  </diagram>
</mxfile>
